<!-- icon666.com - MILLIONS vector ICONS FREE --><svg id="Capa_1" enable-background="new 0 0 504.5 504.5" viewBox="0 0 504.5 504.5" xmlns="http://www.w3.org/2000/svg"><g><path d="m453.341 235.951h-402.182c-13.632 0-24.684 11.051-24.684 24.684v160.809c0 13.633 11.051 24.684 24.684 24.684h155.178c3.778 0 7.269 2.016 9.158 5.288l27.596 47.797c4.07 7.05 14.246 7.05 18.316 0l27.596-47.797c1.889-3.272 5.38-5.288 9.158-5.288h155.179c13.633 0 24.684-11.051 24.684-24.684v-160.81c0-13.632-11.051-24.683-24.683-24.683z" fill="#fd8087"></path><ellipse cx="252.25" cy="144.896" fill="#cbc4cc" rx="47.828" ry="47.828" transform="matrix(.924 -.383 .383 .924 -36.248 107.561)"></ellipse><path d="m453.341 235.951h-5.316v157.493c0 13.633-11.051 24.684-24.684 24.684h-137.827c-14.516 0-27.928 7.744-35.186 20.315l-18.92 32.77c-.726 1.258-1.653 2.281-2.698 3.09l14.382 24.91c4.07 7.05 14.246 7.05 18.316 0l27.596-47.797c1.889-3.272 5.38-5.288 9.158-5.288h155.178c13.633 0 24.684-11.051 24.684-24.684v-160.81c.001-13.632-11.051-24.683-24.683-24.683z" fill="#fe646f"></path><path d="m252.25 97.067c-5.242 0-10.281.855-15 2.413 19.064 6.294 32.828 24.242 32.828 45.415s-13.764 39.121-32.828 45.415c4.719 1.558 9.758 2.413 15 2.413 26.415 0 47.828-21.414 47.828-47.828s-21.413-47.828-47.828-47.828z" fill="#b5adb6"></path><path d="m345.465 152.396c-4.143 0-7.5-3.358-7.5-7.5 0-47.264-38.452-85.716-85.716-85.716s-85.716 38.452-85.716 85.716c0 4.142-3.357 7.5-7.5 7.5s-7.5-3.358-7.5-7.5c0-55.535 45.181-100.716 100.716-100.716s100.716 45.181 100.716 100.716c0 4.142-3.357 7.5-7.5 7.5z" fill="#e2dee2"></path><path d="m389.645 152.396c-4.143 0-7.5-3.358-7.5-7.5 0-71.625-58.27-129.896-129.895-129.896s-129.896 58.271-129.896 129.896c0 4.142-3.357 7.5-7.5 7.5s-7.5-3.358-7.5-7.5c0-79.896 65-144.896 144.896-144.896s144.895 65 144.895 144.896c0 4.142-3.357 7.5-7.5 7.5z" fill="#e2dee2"></path><g fill="#fcf5f5"><path d="m142.245 374.538c-.015 0-.028 0-.043 0-7.251.041-17.595.087-24.414.077v-83.758c0-4.142-3.357-7.5-7.5-7.5s-7.5 3.358-7.5 7.5v91.182c0 3.653 2.633 6.775 6.233 7.392.524.09 1.096.188 11.119.188 4.833 0 11.863-.023 22.146-.08 4.142-.023 7.481-3.4 7.458-7.542-.024-4.129-3.376-7.459-7.499-7.459z"></path><path d="m193.155 283.356c-4.143 0-7.5 3.358-7.5 7.5v91.258c0 4.142 3.357 7.5 7.5 7.5s7.5-3.358 7.5-7.5v-91.258c0-4.142-3.357-7.5-7.5-7.5z"></path><path d="m394.212 374.614h-30.602v-30.212h27.792c4.143 0 7.5-3.358 7.5-7.5s-3.357-7.5-7.5-7.5h-27.792v-30.213h30.602c4.143 0 7.5-3.358 7.5-7.5s-3.357-7.5-7.5-7.5h-38.102c-4.143 0-7.5 3.358-7.5 7.5v90.425c0 4.142 3.357 7.5 7.5 7.5h38.102c4.143 0 7.5-3.358 7.5-7.5s-3.358-7.5-7.5-7.5z"></path><path d="m308.098 284.323c-3.927-1.306-8.176.822-9.481 4.753l-24.742 74.479-25.945-74.742c-1.357-3.913-5.633-5.985-9.544-4.626-3.913 1.358-5.984 5.632-4.626 9.545l31.22 89.938c1.353 3.812 4.967 6.361 9.008 6.361.021 0 .043-.001.064-.001 4.066-.027 7.678-2.632 9.004-6.532l29.797-89.694c1.305-3.93-.824-8.175-4.755-9.481z"></path></g></g></svg>